<?xml version="1.0" encoding="UTF-8" standalone="no"?>
<!DOCTYPE svg PUBLIC "-//W3C//DTD SVG 1.1//EN" "http://www.w3.org/Graphics/SVG/1.1/DTD/svg11.dtd">
<svg width="306px" height="375px" version="1.1" xmlns="http://www.w3.org/2000/svg" xmlns:xlink="http://www.w3.org/1999/xlink" xml:space="preserve" xmlns:serif="http://www.serif.com/" style="fill-rule:evenodd;clip-rule:evenodd;stroke-linecap:round;stroke-linejoin:round;stroke-miterlimit:1.5;">
    <g transform="matrix(1,0,0,1,-213.109,-58.2601)">
        <g transform="matrix(6.12323e-17,1,-1,6.12323e-17,611.441,-121.138)">
            <g transform="matrix(-0.965375,1.38004,-0.630559,-0.441094,765.904,-115.782)">
                <ellipse cx="251.773" cy="200.708" rx="35.017" ry="31.391" style="fill:#0e781b;"/>
            </g>
            <g transform="matrix(-0.874828,-1.43914,0.657565,-0.399721,485.82,788.954)">
                <ellipse cx="251.773" cy="200.708" rx="35.017" ry="31.391" style="fill:#0e781b;"/>
            </g>
            <g transform="matrix(1.05355,1.31396,-0.600366,0.481383,100.997,-282.136)">
                <ellipse cx="251.773" cy="200.708" rx="35.017" ry="31.391" style="fill:#0e781b;"/>
            </g>
            <g transform="matrix(0.94383,-1.39486,0.637332,0.43125,-133.718,606.944)">
                <ellipse cx="251.773" cy="200.708" rx="35.017" ry="31.391" style="fill:#0e781b;"/>
            </g>
            <g transform="matrix(-1.83697e-16,1,-0.900192,-1.65363e-16,908.365,147.89)">
                <path d="M96.972,393.872C96.972,393.872 65.879,403.648 65.879,457.271C65.879,476.334 79.812,491.812 96.972,491.812C114.133,491.812 128.066,476.334 128.066,457.271C128.066,403.648 96.972,393.872 96.972,393.872Z" style="fill:#018511;stroke:#000;stroke-width:0.16px;"/>
                <path d="M96.972,393.872C96.972,393.872 65.879,403.648 65.879,457.271C65.879,476.334 79.812,491.812 96.972,491.812C114.133,491.812 128.066,476.334 128.066,457.271C128.066,403.648 96.972,393.872 96.972,393.872Z" style="fill:#018511;stroke:#000;stroke-width:0.16px;"/>
            </g>
            <g transform="matrix(-1.67384e-16,0.911197,-0.904526,-1.66159e-16,573.677,-85.4027)">
                <ellipse cx="361.914" cy="265.461" rx="114.604" ry="160.248" style="fill:#0d941d;stroke:#000;stroke-width:0.17px;stroke-linecap:butt;stroke-miterlimit:1.41421;"/>
                <ellipse cx="361.914" cy="265.461" rx="114.604" ry="160.248" style="fill:#0d941d;stroke:#000;stroke-width:0.17px;stroke-linecap:butt;stroke-miterlimit:1.41421;"/>
                <ellipse cx="361.914" cy="265.461" rx="114.604" ry="160.248" style="fill:#0d941d;stroke:#000;stroke-width:0.17px;stroke-linecap:butt;stroke-miterlimit:1.41421;"/>
            </g>
        </g>
    </g>
</svg>
